<?xml version="1.0" standalone="no"?>
<!DOCTYPE svg PUBLIC "-//W3C//DTD SVG 20010904//EN"
 "http://www.w3.org/TR/2001/REC-SVG-20010904/DTD/svg10.dtd">
<svg version="1.0" xmlns="http://www.w3.org/2000/svg"
 width="800.000000pt" height="800.000000pt" viewBox="0 0 800.000000 800.000000"
 preserveAspectRatio="xMidYMid meet">
<metadata>
Created by potrace 1.11, written by Peter Selinger 2001-2013
</metadata>
<g transform="translate(0.000000,800.000000) scale(0.100000,-0.100000)"
fill="#000000" stroke="none">
<path d="M3616 7979 c-93 -73 -142 -368 -111 -676 25 -257 100 -491 183 -569
20 -19 40 -35 44 -35 4 -1 14 -2 21 -3 68 -10 127 82 157 244 18 94 20 120 20
276 0 128 -2 162 -15 249 -3 17 -7 48 -11 70 -18 127 -76 301 -126 379 -53 81
-111 105 -162 65z"/>
<path d="M6559 7283 c-74 -33 -154 -97 -270 -212 -361 -360 -649 -904 -542
-1023 70 -78 339 109 568 396 27 33 82 104 103 131 4 6 32 48 63 95 150 229
228 405 235 528 3 57 0 66 -21 88 -30 30 -68 29 -136 -3z"/>
<path d="M1163 6878 c-29 -14 -38 -62 -23 -116 6 -23 36 -80 68 -127 89 -132
173 -221 401 -425 9 -8 41 -33 71 -56 242 -181 437 -290 574 -318 146 -31 186
28 116 170 -121 247 -575 646 -922 812 -37 18 -73 32 -80 32 -8 0 -18 4 -23 9
-14 12 -98 31 -132 30 -15 0 -38 -5 -50 -11z"/>
<path d="M3989 6206 c-2 -2 -56 -6 -119 -9 -654 -33 -1278 -424 -1600 -1003
-102 -183 -202 -475 -225 -654 -4 -30 -11 -82 -15 -115 -9 -65 -5 -399 5 -455
10 -56 35 -193 39 -216 10 -50 51 -177 88 -269 94 -239 268 -521 513 -835 166
-214 327 -432 406 -552 147 -225 260 -483 303 -691 37 -176 44 -255 45 -496 1
-122 4 -227 7 -233 9 -15 35 13 55 60 l19 43 47 -25 c49 -26 173 -70 228 -81
287 -57 527 -64 720 -20 119 27 215 88 215 136 0 190 -650 337 -1080 244 -36
-7 -66 -12 -67 -11 -1 1 2 27 6 57 5 29 8 120 8 202 -1 81 0 147 1 147 2 0 22
-16 45 -35 166 -142 567 -204 823 -127 90 28 148 94 137 157 -8 37 -84 114
-143 142 -25 12 -38 22 -30 23 20 0 116 -63 140 -93 10 -12 20 -20 23 -17 3 4
23 96 63 300 24 121 117 457 179 650 67 209 193 563 225 635 5 11 32 76 61
145 28 69 90 217 138 330 48 113 98 232 111 265 12 33 26 69 31 80 31 75 63
206 102 415 6 30 -2 -185 -8 -220 -2 -14 -6 -41 -9 -60 -29 -180 -97 -369
-291 -805 -7 -16 -38 -91 -68 -165 -127 -316 -180 -466 -308 -877 -53 -172
-167 -658 -184 -788 -4 -27 -8 -52 -10 -55 -2 -3 -6 -30 -9 -60 -4 -30 -9 -66
-11 -80 -11 -60 -15 -197 -7 -225 l8 -30 18 21 c30 36 73 145 237 614 17 47
34 94 39 105 10 23 75 197 100 270 21 59 94 242 121 302 11 23 19 45 19 48 0
4 7 21 15 38 7 18 45 104 83 192 86 199 157 350 290 620 244 491 302 652 348
960 18 113 5 444 -20 555 -3 14 -8 37 -10 51 -7 44 -47 180 -76 260 -167 451
-495 814 -930 1027 -170 83 -390 155 -545 177 -27 4 -58 9 -68 11 -10 2 -62 6
-115 10 -54 3 -100 8 -103 10 -3 2 -8 2 -10 0z m-1543 -2216 c40 -164 131
-384 201 -487 13 -19 23 -36 23 -38 0 -5 74 -123 87 -140 5 -5 24 -35 43 -65
19 -30 38 -56 42 -58 5 -2 8 -8 8 -13 0 -6 31 -54 68 -107 72 -102 204 -299
263 -392 130 -207 273 -489 327 -645 20 -56 58 -191 60 -208 0 -4 4 -26 7 -50
4 -23 8 -73 10 -112 1 -38 3 -73 4 -77 1 -4 29 6 64 22 34 16 78 32 97 35 23
4 15 -1 -23 -14 -68 -22 -104 -44 -133 -78 l-21 -25 -12 64 c-46 236 -150 491
-309 758 -78 131 -127 206 -334 510 -235 348 -354 566 -421 775 -20 61 -38
124 -42 140 -3 17 -8 41 -11 55 -16 77 -24 145 -28 225 -4 78 -3 83 5 40 5
-27 17 -79 25 -115z m1944 -2390 c8 -5 11 -10 5 -10 -5 0 -17 5 -25 10 -8 5
-10 10 -5 10 6 0 17 -5 25 -10z"/>
<path d="M7575 5429 c-27 -4 -62 -10 -77 -13 -16 -3 -40 -8 -54 -11 -70 -15
-303 -96 -404 -142 -89 -39 -292 -144 -355 -183 -76 -46 -187 -120 -195 -129
-3 -3 -27 -24 -55 -46 -107 -86 -165 -163 -165 -220 0 -52 31 -68 133 -68 101
-1 140 6 287 48 362 104 790 334 996 536 139 136 135 220 -11 231 -27 2 -72 0
-100 -3z"/>
<path d="M255 5089 c-75 -44 -57 -105 71 -245 70 -76 308 -246 468 -334 298
-164 600 -271 767 -272 259 -1 96 247 -341 520 -100 62 -352 193 -400 207 -14
4 -29 11 -35 15 -14 11 -174 67 -260 91 -86 24 -242 35 -270 18z"/>
<path d="M3729 456 c-2 -2 -27 -6 -56 -10 -72 -8 -162 -44 -195 -77 -20 -20
-28 -37 -28 -63 0 -114 310 -259 627 -293 88 -10 302 -10 374 -1 67 9 157 41
193 69 49 38 43 108 -13 159 -91 83 -312 168 -504 195 -27 3 -59 9 -70 12 -25
5 -323 14 -328 9z"/>
</g>
</svg>
